<svg width="19" height="21" viewBox="0 0 19 21" fill="none" xmlns="http://www.w3.org/2000/svg">
<path d="M17.026 0H0.987007C0.444141 0 0 0.499988 0 1.11112V3.1111C0 3.72223 0.444141 4.22222 0.987007 4.22222H16.9766C17.5195 4.22222 17.9636 3.72223 17.9636 3.1111V1.11112C18.013 0.499988 17.5688 0 17.026 0ZM17.026 11.1667H0.987007C0.444141 11.1667 0 11.6667 0 12.2778V14.2778C0 14.8889 0.444141 15.3889 0.987007 15.3889H16.9766C17.5195 15.3889 17.9636 14.8889 17.9636 14.2778V12.2778C18.013 11.6667 17.5688 11.1667 17.026 11.1667V11.1667ZM10.0182 16.7778H0.987007C0.444141 16.7778 0 17.2778 0 17.8889V19.8889C0 20.5 0.444141 21 0.987007 21H10.0182C10.5611 21 11.0052 20.5 11.0052 19.8889V17.8889C11.0052 17.2778 10.5611 16.7778 10.0182 16.7778V16.7778ZM18.013 5.61112H0.987007C0.444141 5.61112 0 6.11111 0 6.7222V8.72222C0 9.33331 0.444141 9.83334 0.987007 9.83334H18.013C18.5559 9.83334 19 9.33331 19 8.72222V6.7222C19 6.11111 18.5559 5.61112 18.013 5.61112V5.61112Z" fill="#0BA4DB"/>
</svg>
